<svg xmlns="http://www.w3.org/2000/svg" viewBox="0.79 0.79 59.94 59.94">
  <path fill="#9E173B" fill-rule="evenodd" d="m53.114.795h-44.707c-4.178 0-7.613 3.47-7.613 7.71v44.511c0 4.238 3.435 7.709 7.613 7.709h44.707c4.203 0 7.615-3.471 7.615-7.709v-44.51c0-4.24-3.412-7.71-7.615-7.71"/>
  <path fill="#FFFFFF" d="m8.407 1.589c-3.762 0-6.818 3.102-6.818 6.917v44.51c0 3.814 3.056 6.915 6.818 6.915h44.707c3.76 0 6.827-3.101 6.827-6.916v-44.509c0-3.815-3.068-6.917-6.827-6.917zm44.707 59.928h-44.707c-4.637 0-8.407-3.815-8.407-8.502v-44.509c0-4.689 3.77-8.506 8.407-8.506h44.707c4.634 0 8.41 3.817 8.41 8.506v44.51c0 4.686-3.776 8.501-8.41 8.501"/>
  <path fill="#FAB90C" fill-rule="evenodd" d="m42 8.622h10.913v44.286h-10.913v-12.54c-9.613 3.515-18.602 3.825-26.86-4.266-3.421-3.56-5.35-8.41-4.543-16.86.138-1.294-.467-7.296-1.986-10.632h9.693c4.541 7.21-1.41 16.412 5.547 22.286 9.482 6.138 17.749-1.202 18.149-7.829zm-10.873 4.57c5.168 0 9.343 4.181 9.343 9.249 0 5.115-4.175 9.255-9.343 9.255-5.167 0-9.387-4.14-9.387-9.255 0-5.068 4.22-9.249 9.387-9.249"/>
</svg>
